# AST/ASF file generated using VICON BodyLanguage
# -----------------------------------------------
:version 1.10
:name VICON
:units
  mass 1.0
  length 0.45
  angle deg
:documentation
   .ast/.asf automatically generated from VICON data using
   VICON BodyBuilder and BodyLanguage model FoxedUp or BRILLIANT.MOD
:root
   order TX TY TZ RX RY RZ
   axis XYZ
   position 0 0 0  
   orientation 0 0 0 
:bonedata
  begin
     id 1 
     name lhipjoint
     direction 0.661853 -0.702389 0.261917 
     length 2.64193 
     axis 0 0 0  XYZ
  end
  begin
     id 2 
     name lfemur
     direction 0.34202 -0.939693 0  
     length 7.01722  
     axis 0 0 20  XYZ
    dof rx ry rz
    limits (-160.0 20.0)
           (-70.0 70.0)
           (-60.0 70.0)
  end
  begin
     id 3 
     name ltibia
     direction 0.34202 -0.939693 0   
     length 8.25008   
     axis 0 0 20   XYZ
    dof rx
    limits (-10.0 170.0)
  end
  begin
     id 4 
     name lfoot
     direction 0.0709916 -0.195048 0.978221   
     length 2.31941   
     axis -90 7.62852e-016 20   XYZ
    dof rx rz
    limits (-45.0 90.0)
           (-70.0 20.0)
  end
  begin
     id 5 
     name ltoes
     direction 1.53586e-011 -4.22017e-011 1   
     length 1.16486   
     axis -90 7.62852e-016 20   XYZ
    dof rx
    limits (-90.0 20.0)
  end
  begin
     id 6 
     name rhipjoint
     direction -0.638185 -0.721362 0.268992   
     length 2.57244  
     axis 0 0 0  XYZ 
  end
  begin
     id 7 
     name rfemur
     direction -0.34202 -0.939693 0   
     length 7.07017   
     axis 0 0 -20   XYZ
    dof rx ry rz
    limits (-160.0 20.0)
           (-70.0 70.0)
           (-70.0 60.0)
  end
  begin
     id 8 
     name rtibia
     direction -0.34202 -0.939693 0   
     length 8.20386   
     axis 0 0 -20   XYZ
    dof rx
    limits (-10.0 170.0)
 end
 begin
     id 9 
     name rfoot
     direction -0.0822429 -0.225961 0.970658   
     length 2.32215  
     axis -90 -7.62852e-016 -20   XYZ
    dof rx rz
    limits (-45.0 90.0)
           (-20.0 70.0)
  end
  begin
     id 10 
     name rtoes
     direction -1.53597e-011 -4.21689e-011 1   
     length 1.16333   
     axis -90 -7.62852e-016 -20   XYZ
    dof rx
    limits (-90.0 20.0)
  end
  begin
     id 11 
     name lowerback
     direction -0.0131557 0.998589 -0.0514484   
     length 2.14993   
     axis 0 0 0   XYZ
    dof rx ry rz
    limits (-20.0 45.0)
           (-30.0 30.0)
           (-30.0 30.0)
  end
  begin
     id 12 
     name upperback
     direction -0.000776481 0.999993 0.00352685   
     length 2.15301   
     axis 0 0 0   XYZ
    dof rx ry rz
    limits (-20.0 45.0)
           (-30.0 30.0)
           (-30.0 30.0)
  end
  begin
     id 13 
     name thorax
     direction 0.00438186 0.999609 0.0276143   
     length 2.15424   
     axis 0 0 0   XYZ
    dof rx ry rz
    limits (-20.0 45.0)
           (-30.0 30.0)
           (-30.0 30.0)
  end
  begin
     id 14 
     name lowerneck
     direction -0.0488006 0.998094 0.0377807   
     length 1.90481   
     axis 0 0 0   XYZ
    dof rx ry rz
    limits (-20.0 45.0)
           (-30.0 30.0)
           (-30.0 30.0)
  end
  begin
     id 15 
     name upperneck
     direction 0.0443769 0.990702 -0.12861   
     length 1.91305   
     axis 0 0 0   XYZ
    dof rx ry rz
    limits (-20.0 45.0)
           (-30.0 30.0)
           (-30.0 30.0)
  end
  begin
     id 16
     name head
     direction 0.0165599 0.998647 -0.0492982  
     length 1.92369  
     axis 0 0 0   XYZ
    dof rx ry rz
    limits (-20.0 45.0)
           (-30.0 30.0)
           (-30.0 30.0)
  end
  begin
     id 17 
     name lclavicle
     direction 0.911936 0.410197 -0.0105506  
     length 3.52622  
     axis 0 0 0   XYZ
    dof ry rz
    limits (-20.0 10.0)
           (0.0 20.0)
  end
  begin
     id 18 
     name lhumerus
     direction 1 -4.48974e-011 -2.48591e-028   
     length 5.47651   
     axis 180 -30 -90   XYZ
    dof rx ry rz
    limits (-60.0 90.0)
           (-90.0 90.0)
           (-90.0 90.0)
  end
  begin
     id 19
     name lradius
     direction 1 -4.48938e-011 -4.40099e-027   
     length 3.09058   
     axis 180 -30 -90   XYZ
    dof rx
    limits (-10.0 170.0)
  end
  begin
     id 20
     name lwrist
     direction 1 -4.49042e-011 -2.99852e-027   
     length 1.54529   
     axis 1.95339e-015 90 90   XYZ
    dof ry
    limits (-180.0 0.0)
 end
  begin
     id 21 
     name lhand
     direction 1 -4.48815e-011 -5.98193e-027   
     length 0.771611   
     axis 3.82337e-015 90 90   XYZ
    dof rx rz
    limits (-90.0 90.0)
           (-45.0 45.0)
  end
  begin
     id 22 
     name lfingers
     direction 1 -4.49034e-011 -1.1993e-026   
     length 0.622093   
     axis 7.64668e-015 90 90   XYZ
    dof rx
    limits (0.0 90.0)
  end
  begin
     id 23
     name lthumb
     direction 0.707107 -6.34867e-011 0.707107   
     length 0.893204   
     axis -90 45 -1.62303e-014   XYZ
    dof rx rz
    limits (-45.0 45.0)
           (-45.0 45.0)
  end
  begin
     id 24 
     name rclavicle
     direction -0.93442 0.355634 -0.0195692   
     length 3.62463  
     axis 0 0 0   XYZ 
    dof ry rz
    limits (-10.0 20.0)
           (-20.0 0.0)
  end
  begin
     id 25 
     name rhumerus
     direction -1 -4.48957e-011 -1.19147e-027  
     length 5.14182   
     axis 180 30 90   XYZ
    dof rx ry rz
    limits (-90.0 60.0)
           (-90.0 90.0)
           (-90.0 90.0)
  end
  begin
     id 26 
     name rradius
     direction -1 -4.48952e-011 -3.81062e-027   
     length 3.35565   
     axis 180 30 90   XYZ
    dof rx
    limits (-10.0 170.0)
  end
  begin
     id 27 
     name rwrist
     direction -1 -4.48973e-011 -2.99621e-027   
     length 1.67782   
     axis 1.95339e-015 -90 -90   XYZ
    dof ry
    limits (-180.0 0.0)
  end
  begin
     id 28
     name rhand
     direction -1 -4.48895e-011 -5.98727e-027   
     length 0.801042   
     axis 3.82337e-015 -90 -90   XYZ
    dof rx rz
    limits (-90.0 90.0)
           (-45.0 45.0)
  end
  begin
     id 29
     name rfingers
     direction -1 -4.49065e-011 -1.19972e-026   
     length 0.645821   
     axis 7.64668e-015 -90 -90   XYZ
    dof rx
    limits (0.0 90.0)
  end
  begin
     id 30
     name rthumb
     direction -0.707107 -6.34957e-011 0.707107   
     length 0.927273   
     axis -90 -45 1.62303e-014   XYZ
    dof rx rz
    limits (-45.0 45.0)
           (-45.0 45.0)
  end
:hierarchy
  begin
    root lhipjoint rhipjoint lowerback
    lhipjoint lfemur
    lfemur ltibia
    ltibia lfoot
    lfoot ltoes
    rhipjoint rfemur
    rfemur rtibia
    rtibia rfoot
    rfoot rtoes
    lowerback upperback
    upperback thorax
    thorax lowerneck lclavicle rclavicle
    lowerneck upperneck
    upperneck head
    lclavicle lhumerus
    lhumerus lradius
    lradius lwrist
    lwrist lhand lthumb
    lhand lfingers
    rclavicle rhumerus
    rhumerus rradius
    rradius rwrist
    rwrist rhand rthumb
    rhand rfingers
  end

#!OML:ASF E:\Style4\Style4.ASF
:FULLY-SPECIFIED
:DEGREES
1
root -0.193771 18.044 -0.798325 2.83051 -2.70344 3.06362
lowerback 2.43196 1.80417 -2.92659
upperback 0.493735 2.31657 -1.29425
thorax -0.918557 1.16352 0.237142
lowerneck 0.190054 -3.66577 -7.3576
upperneck 9.95825 -5.115 4.69651
head 3.58985 -2.64786 2.7146
rclavicle 4.96962e-015 -5.36719e-015
rhumerus -80.3461 56.3455 -116.275
rradius 85.6727
rwrist -8.99869
rhand 0.236448 30.3804
rfingers 7.12502
rthumb 25.8168 2.11237
lclavicle 4.96962e-015 -5.36719e-015
lhumerus -84.5018 -59.7111 115.59
lradius 94.5712
lwrist -2.63552
lhand -6.34207 3.68772
lfingers 7.12502
lthumb 19.5035 32.7295
rfemur -6.21656 4.3365 15.5498
rtibia 22.2223
rfoot -17.6498 -15.8387
rtoes -11.4361
lfemur -0.309822 -3.76596 -22.4913
ltibia 13.5123
lfoot -16.241 12.8615
ltoes -14.5984
2
root -0.189692 18.0447 -0.797032 2.87091 -2.63946 3.01195
lowerback 2.39978 1.77606 -2.83408
upperback 0.478564 2.28245 -1.2944
thorax -0.911614 1.14633 0.187411
lowerneck 0.209044 -3.66336 -7.33225
upperneck 9.91233 -5.11336 4.70325
head 3.56917 -2.64575 2.71238
rclavicle -2.57178e-014 -2.88238e-015
rhumerus -80.3291 56.3195 -116.288
rradius 85.6502
rwrist -9.03102
rhand 0.21266 30.4002
rfingers 7.12502
rthumb 25.794 2.12891
lclavicle -2.57178e-014 -2.88238e-015
lhumerus -84.4603 -59.6812 115.52
lradius 94.5527
lwrist -2.62643
lhand -6.26978 3.67583
lfingers 7.12502
lthumb 19.573 32.7106
rfemur -6.22939 4.30041 15.5947
rtibia 22.1917
rfoot -17.6474 -15.858
rtoes -11.33
lfemur -0.425146 -3.818 -22.447
ltibia 13.6452
lfoot -16.1971 12.8739
ltoes -14.9403
3
root -0.186053 18.0461 -0.797147 2.94917 -2.56893 2.98526
lowerback 2.34807 1.75405 -2.78169
upperback 0.443386 2.25562 -1.29608
thorax -0.915999 1.13312 0.158433
lowerneck 0.211002 -3.66244 -7.28878
upperneck 9.91863 -5.11216 4.68592
head 3.56838 -2.64417 2.69832
rclavicle -1.98039e-014 5.06901e-015
rhumerus -80.3501 56.2781 -116.316
rradius 85.6482
rwrist -9.07161
rhand 0.0438276 30.3076
rfingers 7.12502
rthumb 25.6324 2.01293
lclavicle -1.98039e-014 5.06901e-015
lhumerus -84.523 -59.6927 115.579
lradius 94.5761
lwrist -2.63136
lhand -6.30197 3.8385
lfingers 7.12502
lthumb 19.542 32.8764
rfemur -6.29978 4.27476 15.6043
rtibia 22.1771
rfoot -17.6353 -15.8597
rtoes -11.3389
lfemur -0.543527 -3.95554 -22.4343
ltibia 13.695
lfoot -16.2542 12.9176
ltoes -14.791
4
root -0.183196 18.0471 -0.796193 2.97572 -2.58842 3.0114
lowerback 2.32012 1.75998 -2.82533
upperback 0.430041 2.2633 -1.28501
thorax -0.916349 1.13718 0.194485
lowerneck 0.204985 -3.65826 -7.2495
upperneck 9.92764 -5.10158 4.62038
head 3.56759 -2.63956 2.66855
rclavicle 2.9035e-014 6.85807e-015
rhumerus -80.3921 56.2831 -116.342
rradius 85.6416
rwrist -9.05812
rhand -0.0926987 30.2526
rfingers 7.12502
rthumb 25.5016 1.93916
lclavicle 2.9035e-014 6.85807e-015
lhumerus -84.5059 -59.6528 115.632
lradius 94.5317
lwrist -2.65454
lhand -6.40808 3.97411
lfingers 7.12502
lthumb 19.44 33.0223
rfemur -6.33331 4.32975 15.5609
rtibia 22.1643
rfoot -17.5954 -15.888
rtoes -11.4856
lfemur -0.575118 -4.01334 -22.4851
ltibia 13.7058
lfoot -16.2882 13.0013
ltoes -14.7247
5
root -0.180981 18.0454 -0.794612 2.97182 -2.61915 3.0684
lowerback 2.30198 1.75993 -2.90987
upperback 0.428036 2.26186 -1.27917
thorax -0.911706 1.13665 0.248183
lowerneck 0.213138 -3.64871 -7.25424
upperneck 9.9172 -5.08598 4.58775
head 3.56012 -2.63309 2.65876
rclavicle -1.84062e-014 -6.95746e-015
rhumerus -80.4606 56.3368 -116.399
rradius 85.635
rwrist -9.06396
rhand -0.197213 30.2573
rfingers 7.12502
rthumb 25.4015 1.92955
lclavicle -1.84062e-014 -6.95746e-015
lhumerus -84.4376 -59.5958 115.618
lradius 94.4911
lwrist -2.71093
lhand -6.47035 4.02051
lfingers 7.12502
lthumb 19.3802 33.0748
rfemur -6.34021 4.37022 15.4875
rtibia 22.1796
rfoot -17.6138 -15.8748
rtoes -11.3193
lfemur -0.549263 -3.97283 -22.5571
ltibia 13.6561
lfoot -16.2474 12.9994
ltoes -14.6866
6
root -0.177774 18.0452 -0.792871 2.92671 -2.58631 3.0992
lowerback 2.32569 1.74347 -2.94409
upperback 0.440111 2.23851 -1.26863
thorax -0.913713 1.12501 0.278275
lowerneck 0.21687 -3.6399 -7.25298
upperneck 9.9225 -5.07073 4.54543
head 3.55841 -2.62694 2.64447
rclavicle -1.75987e-014 9.59136e-015
rhumerus -80.5663 56.3948 -116.472
rradius 85.6477
rwrist -9.08644
rhand -0.3026 30.2557
rfingers 7.12502
rthumb 25.3005 1.91363
lclavicle -1.75987e-014 9.59136e-015
lhumerus -84.424 -59.5716 115.619
lradius 94.5218
lwrist -2.70778
lhand -6.42015 4.11005
lfingers 7.12502
lthumb 19.4284 33.1594
rfemur -6.27972 4.34398 15.4532
rtibia 22.191
rfoot -17.6179 -15.9094
rtoes -11.3847
lfemur -0.465604 -4.01066 -22.6003
ltibia 13.5912
lfoot -16.2615 12.9661
ltoes -14.4442
